{
    "asset" : {
        "generator" : "Khronos glTF Blender I/O v1.5.17",
        "version" : "2.0"
    },
    "scene" : 0,
    "scenes" : [
        {
            "name" : "Scene",
            "nodes" : [
                0,
                1,
                2,
                3,
                4
            ]
        }
    ],
    "nodes" : [
        {
            "mesh" : 0,
            "name" : "mech",
            "scale" : [
                0.5597124099731445,
                0.8333775401115417,
                0.8333775401115417
            ]
        },
        {
            "mesh" : 1,
            "name" : "Light cold fill",
            "scale" : [
                -3.7894210815429688,
                1.6516529321670532,
                5.863028526306152
            ],
            "translation" : [
                -50.21823501586914,
                17.95624542236328,
                0.18757537007331848
            ]
        },
        {
            "mesh" : 2,
            "name" : "Light warm fill",
            "scale" : [
                3.7894210815429688,
                1.6516529321670532,
                5.863028526306152
            ],
            "translation" : [
                50.761600494384766,
                17.95624542236328,
                0.18757537007331848
            ]
        },
        {
            "mesh" : 3,
            "name" : "Plane",
            "scale" : [
                100,
                100,
                100
            ],
            "translation" : [
                0,
                -9.478778839111328,
                0
            ]
        },
        {
            "name" : "Camera",
            "rotation" : [
                0.33476829528808594,
                0.40628501772880554,
                -0.1629888117313385,
                0.8344443440437317
            ],
            "translation" : [
                18.663955688476562,
                23.304580688476562,
                13.427579879760742
            ]
        }
    ],
    "materials" : [
        {
            "doubleSided" : true,
            "name" : "Material",
            "pbrMetallicRoughness" : {}
        },
        {
            "doubleSided" : true,
            "emissiveFactor" : [
                1,
                1,
                1
            ],
            "name" : "Light warm fill",
            "pbrMetallicRoughness" : {}
        },
        {
            "doubleSided" : true,
            "emissiveFactor" : [
                1,
                1,
                1
            ],
            "name" : "Light cold fill",
            "pbrMetallicRoughness" : {}
        },
        {
            "doubleSided" : true,
            "name" : "Ground plane",
            "pbrMetallicRoughness" : {}
        }
    ],
    "meshes" : [
        {
            "name" : "Cube.006",
            "primitives" : [
                {
                    "attributes" : {
                        "POSITION" : 0,
                        "NORMAL" : 1
                    },
                    "indices" : 2,
                    "material" : 0
                }
            ]
        },
        {
            "name" : "Plane.007",
            "primitives" : [
                {
                    "attributes" : {
                        "POSITION" : 3,
                        "NORMAL" : 4
                    },
                    "indices" : 5,
                    "material" : 1
                }
            ]
        },
        {
            "name" : "Plane.005",
            "primitives" : [
                {
                    "attributes" : {
                        "POSITION" : 6,
                        "NORMAL" : 7
                    },
                    "indices" : 5,
                    "material" : 2
                }
            ]
        },
        {
            "name" : "Plane",
            "primitives" : [
                {
                    "attributes" : {
                        "POSITION" : 8,
                        "NORMAL" : 9
                    },
                    "indices" : 10,
                    "material" : 3
                }
            ]
        }
    ],
    "accessors" : [
        {
            "bufferView" : 0,
            "componentType" : 5126,
            "count" : 7020,
            "max" : [
                14.779943466186523,
                4.474300384521484,
                14.038811683654785
            ],
            "min" : [
                -14.779943466186523,
                -2.3032379150390625,
                -13.946022987365723
            ],
            "type" : "VEC3"
        },
        {
            "bufferView" : 1,
            "componentType" : 5126,
            "count" : 7020,
            "type" : "VEC3"
        },
        {
            "bufferView" : 2,
            "componentType" : 5123,
            "count" : 28152,
            "type" : "SCALAR"
        },
        {
            "bufferView" : 3,
            "componentType" : 5126,
            "count" : 16,
            "max" : [
                12.946968078613281,
                5.854147911071777,
                17.270042419433594
            ],
            "min" : [
                -13.102607727050781,
                -6.1907525062561035,
                -17.270042419433594
            ],
            "type" : "VEC3"
        },
        {
            "bufferView" : 4,
            "componentType" : 5126,
            "count" : 16,
            "type" : "VEC3"
        },
        {
            "bufferView" : 5,
            "componentType" : 5123,
            "count" : 24,
            "type" : "SCALAR"
        },
        {
            "bufferView" : 6,
            "componentType" : 5126,
            "count" : 16,
            "max" : [
                12.946968078613281,
                5.854147911071777,
                17.270042419433594
            ],
            "min" : [
                -13.102607727050781,
                -6.1907525062561035,
                -17.270042419433594
            ],
            "type" : "VEC3"
        },
        {
            "bufferView" : 7,
            "componentType" : 5126,
            "count" : 16,
            "type" : "VEC3"
        },
        {
            "bufferView" : 8,
            "componentType" : 5126,
            "count" : 4,
            "max" : [
                1,
                0,
                1
            ],
            "min" : [
                -1,
                0,
                -1
            ],
            "type" : "VEC3"
        },
        {
            "bufferView" : 9,
            "componentType" : 5126,
            "count" : 4,
            "type" : "VEC3"
        },
        {
            "bufferView" : 10,
            "componentType" : 5123,
            "count" : 6,
            "type" : "SCALAR"
        }
    ],
    "bufferViews" : [
        {
            "buffer" : 0,
            "byteLength" : 84240,
            "byteOffset" : 0
        },
        {
            "buffer" : 0,
            "byteLength" : 84240,
            "byteOffset" : 84240
        },
        {
            "buffer" : 0,
            "byteLength" : 56304,
            "byteOffset" : 168480
        },
        {
            "buffer" : 0,
            "byteLength" : 192,
            "byteOffset" : 224784
        },
        {
            "buffer" : 0,
            "byteLength" : 192,
            "byteOffset" : 224976
        },
        {
            "buffer" : 0,
            "byteLength" : 48,
            "byteOffset" : 225168
        },
        {
            "buffer" : 0,
            "byteLength" : 192,
            "byteOffset" : 225216
        },
        {
            "buffer" : 0,
            "byteLength" : 192,
            "byteOffset" : 225408
        },
        {
            "buffer" : 0,
            "byteLength" : 48,
            "byteOffset" : 225600
        },
        {
            "buffer" : 0,
            "byteLength" : 48,
            "byteOffset" : 225648
        },
        {
            "buffer" : 0,
            "byteLength" : 12,
            "byteOffset" : 225696
        }
    ],
    "buffers" : [
        {
            "byteLength" : 225708,
            "uri" : "data:application/octet-stream;base64,"
        }
    ]
}
