<?xml version="1.0" encoding="utf-8"?>
<!-- Uploaded to: SVG Repo, www.svgrepo.com, Generator: SVG Repo Mixer Tools -->
<svg fill="#000000" height="800px" width="800px" version="1.1" id="Layer_1" xmlns="http://www.w3.org/2000/svg" xmlns:xlink="http://www.w3.org/1999/xlink" 
	 viewBox="0 0 256 256" xml:space="preserve">
<g>
	<g>
		<path d="M137.1,20.2v31.4c7.3,0.4,14.3,1.6,20.7,3.7L154,67.3c-5.2-1.7-10.9-2.7-16.9-3.1v146.2l104,31.4V51.6L137.1,20.2z
			 M209.8,126.2c0,2.5-0.2,4.8-0.6,6.8l-12.5-2.3c0.2-1.2,0.4-2.8,0.4-4.5c0-3.9-0.6-8.3-1.8-12.9l12.3-3.1
			C209,115.8,209.8,121.3,209.8,126.2z M204.2,99.7l-11.8,4.7c-2.4-5.9-5.4-11.3-9.1-16.2l10.1-7.7
			C197.9,86.3,201.5,92.8,204.2,99.7z M168.1,59.4c6.7,3.3,12.7,7.6,18.1,12.9l-8.9,9.1c-4.4-4.3-9.4-7.8-14.8-10.6L168.1,59.4z
			 M205.9,193.7l-7.4-16.6l-8.7,10.9l-16.7-5.8l14.6-17.6l-13.8-25.5l18.2,6.4l6.4,14.3l7.4-9.5l17,5.9l-13.7,15.9l14.7,27.9
			L205.9,193.7z"/>
	</g>
	<path d="M103.4,58.2c5.9-3.5,12.4-5.7,19.3-6.4V20.2l-104,31.4v190.3l104-31.4V64.6c-4.6,0.7-8.8,2.2-12.9,4.6L103.4,58.2z
		 M37.9,164.1c-8.6,0-15.5-7-15.5-15.5c0-8.6,7-15.5,15.5-15.5c8.6,0,15.5,7,15.5,15.5C53.5,157.2,46.5,164.1,37.9,164.1z M60.3,143
		l-7.8-10c4.6-3.6,8.4-8.1,11.3-13.5l11.1,6.1C71.1,132.5,66.2,138.3,60.3,143z M79.4,115.5l-11.9-4.3c2.7-7.7,5.3-13.8,8-19.4
		l11.4,5.5C84.4,102.5,82,108.3,79.4,115.5z M91.4,88.9l-10.9-6.5c4.1-6.9,8.8-12.7,13.7-17.3l8.6,9.3C98.7,78.2,94.9,83,91.4,88.9z
		"/>
</g>
</svg>